<!-- Generated by IcoMoon.io -->
<svg version="1.1" xmlns="http://www.w3.org/2000/svg" width="32" height="32" viewBox="0 0 32 32">
<title>antenna</title>
<path fill="#212121" d="M30.784 22.106l-8.446-8.508 0.937-4.617c0.242 0.094 0.499 0.144 0.758 0.146h0.006c0.008 0 0.017 0 0.026 0 1.193 0 2.16-0.967 2.16-2.16s-0.967-2.16-2.16-2.16c-1.193 0-2.16 0.967-2.16 2.16 0 0.26 0.046 0.509 0.13 0.739l-0.005-0.015-4.962 0.605-8.094-8.136c-0.096-0.098-0.229-0.159-0.377-0.16h-0c-0.146 0.001-0.277 0.060-0.373 0.155l0-0-1.514 1.505c-0.096 0.097-0.156 0.23-0.156 0.377s0.060 0.281 0.156 0.377v0l0.814 0.826c-1.143 2.063-1.816 4.524-1.816 7.142 0 4.107 1.656 7.827 4.337 10.529l-0.001-0.001c0.041 0.040 0.090 0.073 0.143 0.097l0.003 0.001c-0.034 0.18-0.051 0.364-0.052 0.547v6.189h-6.402c-1.473 0.002-2.666 1.195-2.668 2.668v1.068c0 0.295 0.239 0.533 0.533 0.533h24.542c0.294 0 0.533-0.239 0.533-0.533v0-1.067c-0.002-1.473-1.195-2.666-2.668-2.668h-6.402v-2.743c0.916 0.201 1.968 0.317 3.048 0.32h0.002c2.581-0.003 5.006-0.663 7.12-1.822l-0.077 0.039 0.818 0.823c0.096 0.098 0.229 0.159 0.377 0.16h0c0.146-0.001 0.277-0.060 0.373-0.155l-0 0 1.514-1.505c0.096-0.097 0.156-0.23 0.156-0.377s-0.060-0.281-0.156-0.377v0zM23.288 6.235c0.193-0.192 0.458-0.31 0.752-0.31 0.589 0 1.066 0.477 1.066 1.066s-0.477 1.066-1.066 1.066h-0.003c-0.587-0.003-1.061-0.48-1.061-1.067 0-0.295 0.12-0.563 0.314-0.756l0-0h-0.002zM22.032 9.741l-0.598 2.947-1.175-1.182 1.775-1.764zM21.427 8.839l-1.921 1.91-1.486-1.494 3.406-0.415zM24.013 28.81c0.884 0 1.601 0.717 1.601 1.601v0 0.533h-23.475v-0.533c0-0.884 0.717-1.601 1.601-1.601v0h20.274zM16.543 26.676v1.067h-5.335v-1.067h5.335zM11.208 25.609v-4.054c0-1.294 1.196-2.348 2.668-2.348s2.668 1.053 2.668 2.348v4.054h-5.335zM17.61 23.913v-2.358c0-1.883-1.676-3.414-3.734-3.414-0.017-0-0.038-0-0.058-0-1.353 0-2.541 0.707-3.215 1.771l-0.009 0.016c-2.361-2.483-3.813-5.848-3.813-9.553 0-2.315 0.567-4.497 1.569-6.416l-0.036 0.077 18.609 18.715c-1.823 0.947-3.981 1.503-6.268 1.503-1.079 0-2.13-0.124-3.138-0.358l0.093 0.018zM28.903 23.228l-21.064-21.189 0.755-0.752 7.938 7.983c0.004 0 0.006 0.007 0.010 0.010l13.12 13.196-0.757 0.752z"></path>
<path fill="#2196f3" d="M13.881 20.274h-0.005c-0.001 0-0.001 0-0.002 0-0.884 0-1.601 0.717-1.601 1.601s0.715 1.599 1.598 1.601h0.005c0.001 0 0.001 0 0.002 0 0.884 0 1.601-0.717 1.601-1.601s-0.715-1.599-1.598-1.601h-0zM14.254 22.253c-0.094 0.084-0.218 0.135-0.355 0.135-0.295 0-0.534-0.239-0.534-0.534 0-0.137 0.052-0.263 0.137-0.358l-0 0c0.096-0.095 0.227-0.154 0.373-0.155h0c0.294 0 0.532 0.238 0.532 0.532 0 0.148-0.061 0.283-0.159 0.379l-0 0h0.005z"></path>
</svg>
