<!-- Generated by IcoMoon.io -->
<svg version="1.1" xmlns="http://www.w3.org/2000/svg" width="32" height="32" viewBox="0 0 32 32">
<title>astronaut</title>
<path fill="#2196f3" d="M31.985 4.526c-0.064-0.191-0.227-0.332-0.427-0.363l-0.003-0-1.911-0.278-0.855-1.732c-0.179-0.365-0.777-0.365-0.956 0l-0.855 1.732-1.911 0.278c-0.259 0.040-0.456 0.262-0.456 0.529 0 0.149 0.061 0.284 0.159 0.381l0 0 1.384 1.348-0.326 1.904c-0.034 0.2 0.048 0.402 0.212 0.522 0.087 0.064 0.195 0.102 0.313 0.102 0.091 0 0.177-0.023 0.252-0.064l-0.003 0.001 1.71-0.899 1.71 0.899c0.072 0.038 0.156 0.060 0.246 0.060 0.296 0 0.536-0.24 0.536-0.536 0-0.031-0.003-0.061-0.008-0.090l0 0.003-0.326-1.904 1.384-1.348c0.099-0.097 0.161-0.233 0.161-0.383 0-0.059-0.009-0.115-0.027-0.168l0.001 0.004zM29.521 5.853c-0.099 0.097-0.161 0.232-0.161 0.382 0 0.032 0.003 0.063 0.008 0.093l-0-0.003 0.191 1.114-1-0.526c-0.072-0.039-0.158-0.062-0.249-0.062s-0.177 0.023-0.252 0.063l0.003-0.001-1.001 0.526 0.191-1.114c0.005-0.027 0.008-0.058 0.008-0.090 0-0.15-0.061-0.285-0.161-0.382l-0-0-0.81-0.789 1.119-0.163c0.178-0.026 0.325-0.137 0.401-0.289l0.001-0.003 0.5-1.013 0.5 1.013c0.078 0.155 0.225 0.265 0.399 0.292l0.003 0 1.119 0.163-0.809 0.789zM26.143 20.529h-1.067v1.067h1.067v-1.067zM26.143 22.664h-1.067v1.067h1.067v-1.067zM27.21 21.597h-1.067v1.067h1.067v-1.067zM25.076 21.597h-1.067v1.067h1.067v-1.067zM22.408 26.398h-1.067v1.067h1.067v-1.067zM22.408 28.532h-1.067v1.067h1.067v-1.067zM23.475 27.466h-1.067v1.067h1.067v-1.067zM21.341 27.466h-1.067v1.067h1.067v-1.067zM16.006 24.265h-1.067v1.067h1.067v-1.067zM16.006 26.398h-1.067v1.067h1.067v-1.067zM17.073 25.331h-1.067v1.067h1.067v-1.067zM14.938 25.331h-1.067v1.067h1.067v-1.067zM5.869 6.124h-1.067v1.067h1.067v-1.067zM5.869 8.258h-1.067v1.067h1.067v-1.067z"></path>
<path fill="#2196f3" d="M6.935 7.192h-1.067v1.067h1.067v-1.067zM4.802 7.192h-1.067v1.067h1.067v-1.067z"></path>
<path fill="#212121" d="M24.724 14.164c-0.28-0.377-0.699-0.636-1.179-0.704l-0.009-0.001c-0.076-0.012-0.164-0.018-0.254-0.018-0.411 0-0.789 0.139-1.090 0.373l0.004-0.003-1.252 0.96-1.899 1.418-1.358-0.541c2.422-1.086 4.115-3.509 4.115-6.322 0-3.824-3.124-6.935-6.963-6.935s-6.963 3.111-6.963 6.935c0 0 0 0.001 0 0.001 0 1.398 0.418 2.699 1.136 3.783l-0.016-0.025-2.77-0.024c-0.009 0-0.015 0.004-0.023 0.005-0.056 0.002-0.109 0.014-0.159 0.032l0.004-0.001-0.038 0.013c-0.006 0.003-0.013 0.003-0.019 0.006l-3.235 1.598-1.894 0.911c-0.024 0.011-0.045 0.023-0.064 0.036l0.001-0.001c-0.482 0.323-0.795 0.866-0.795 1.482 0 0.297 0.073 0.577 0.201 0.823l-0.005-0.010c0.22 0.429 0.595 0.745 1.056 0.889 0.161 0.053 0.346 0.083 0.538 0.083 0.308 0 0.597-0.078 0.85-0.216l-0.009 0.005 1.389-0.738 2.265-1.169 1.357-0.008-6.785 6.752c-0.316 0.315-0.49 0.732-0.49 1.178s0.174 0.863 0.49 1.179c0.325 0.323 0.752 0.485 1.179 0.485s0.854-0.162 1.18-0.485l1.314-1.309 1.742-1.3 0.901 0.897-3.104 3.089c-0.316 0.315-0.49 0.732-0.49 1.178s0.174 0.863 0.49 1.179c0.325 0.323 0.753 0.485 1.18 0.485s0.855-0.162 1.18-0.485l3.484-3.47 1.010-1-0.004-0.004c0.006-0.006 0.015-0.009 0.022-0.015l5.168-5.66 3.472 0.494c0.020 0.003 0.044 0.005 0.068 0.005 0.070 0 0.137-0.014 0.197-0.039l-0.003 0.001c0.018-0.006 0.033-0.015 0.050-0.023 0.019-0.010 0.039-0.015 0.058-0.027l3.214-2.134c0.012-0.008 0.018-0.021 0.029-0.029 0.013-0.010 0.029-0.014 0.041-0.026l1.271-1.191c0.662-0.62 0.753-1.636 0.212-2.363zM2.131 17.776c-0.098 0.054-0.215 0.086-0.34 0.086-0.078 0-0.153-0.012-0.223-0.036l0.005 0.001c-0.294-0.094-0.503-0.365-0.503-0.684 0-0.235 0.113-0.444 0.288-0.575l0.002-0.001 1.314-0.632 0.449 1.312-0.992 0.528zM5.63 15.948l-1.549 0.8-0.439-1.283 2.028-1.001-0.040 1.485zM20.734 9.325c-0.001 0.933-0.222 1.813-0.614 2.593l0.015-0.033-4.183-1.9c-0.044-0.575-0.343-1.073-0.782-1.385l-0.006-0.004 1.465-4.862c2.379 0.756 4.106 2.975 4.106 5.59zM8.941 9.325c0-3.236 2.645-5.869 5.896-5.869 0.253 0 0.5 0.021 0.745 0.052l-1.432 4.756c-0.019-0.001-0.037-0.006-0.057-0.006-1.033 0-1.874 0.837-1.874 1.868s0.84 1.868 1.874 1.868c0.694 0 1.294-0.383 1.619-0.945l3.863 1.756c-1.086 1.457-2.803 2.39-4.739 2.391h-0c-3.251 0-5.896-2.633-5.896-5.869zM14.899 10.126c0 0.441-0.362 0.8-0.806 0.8s-0.806-0.359-0.806-0.8c0-0.441 0.362-0.8 0.806-0.8s0.806 0.359 0.806 0.8zM2.466 25.155c-0.11 0.109-0.261 0.176-0.428 0.176s-0.317-0.067-0.427-0.175l0 0c-0.109-0.108-0.177-0.257-0.177-0.422s0.068-0.315 0.177-0.422l0-0 0.962-0.958 0.851 0.848-0.959 0.955zM5.681 28.89c-0.11 0.109-0.261 0.176-0.428 0.176s-0.317-0.067-0.427-0.175l0 0c-0.109-0.108-0.177-0.257-0.177-0.422s0.068-0.315 0.177-0.422l0-0 0.963-0.959 0.852 0.848-0.96 0.955zM9.163 25.42l-0.002 0.001-1.766 1.761-0.852-0.848 1.766-1.757c0.040-0.040 0.065-0.088 0.090-0.135 0.007-0.014 0.020-0.026 0.026-0.040 0.017-0.041 0.019-0.085 0.026-0.129 0.003-0.025 0.014-0.047 0.014-0.073 0-0.036-0.013-0.070-0.020-0.106-0.006-0.032-0.006-0.065-0.019-0.095-0.025-0.053-0.055-0.098-0.091-0.139l0 0c-0.010-0.012-0.014-0.027-0.025-0.038h-0.001l-0.001-0.002-1.608-1.601c-0.017-0.017-0.039-0.024-0.058-0.038-0.025-0.021-0.054-0.040-0.084-0.057l-0.003-0.001c-0.026-0.013-0.057-0.024-0.089-0.032l-0.004-0.001c-0.030-0.009-0.065-0.017-0.101-0.020l-0.002-0c-0.006-0-0.014-0-0.021-0-0.026 0-0.052 0.002-0.076 0.006l0.003-0c-0.039 0.004-0.074 0.011-0.108 0.021l0.004-0.001c-0.036 0.013-0.067 0.028-0.096 0.046l0.002-0.001c-0.020 0.011-0.042 0.015-0.061 0.029l-1.774 1.324-0.901-0.897 2.4-2.387 4.363 4.291-0.928 0.919zM15.985 18.401c-0.015-0.002-0.030 0.004-0.045 0.003-0.006-0-0.013-0-0.020-0-0.103 0-0.2 0.028-0.282 0.077l0.003-0.001c-0.031 0.018-0.059 0.039-0.083 0.061l0-0c-0.013 0.011-0.028 0.017-0.040 0.029l-4.7 5.148-4.33-4.258 2.834-2.819c0.096-0.097 0.156-0.23 0.156-0.377 0-0.295-0.239-0.534-0.534-0.534-0 0-0.001 0-0.001 0h0v-0.001l-2.22 0.013 0.028-1.608 3.105 0.027c1.264 1.297 3.028 2.102 4.979 2.102 0.001 0 0.002 0 0.004 0h-0c0.437 0 0.864-0.045 1.279-0.123 0.040 0.032 0.079 0.065 0.13 0.085l2.411 0.96 0.331 1.645-3.004-0.427zM20.027 18.579l-0.313-1.559 1.447-1.080 0.947 1.257-2.081 1.381zM23.782 15.747l-0.838 0.785-0.931-1.236 0.831-0.637c0.122-0.093 0.277-0.15 0.445-0.15 0.035 0 0.069 0.002 0.102 0.007l-0.004-0c0.198 0.028 0.367 0.132 0.479 0.282l0.001 0.002c0.088 0.117 0.141 0.266 0.141 0.426 0 0.205-0.087 0.391-0.226 0.521l-0 0z"></path>
<path fill="#212121" d="M13.607 18.551l-2.144-2.134c-0.097-0.096-0.23-0.155-0.377-0.155s-0.28 0.059-0.377 0.155l0-0-2.143 2.134c-0.096 0.097-0.156 0.231-0.156 0.378s0.059 0.281 0.156 0.378l-0-0 2.143 2.134c0.097 0.096 0.23 0.155 0.377 0.155s0.28-0.059 0.377-0.155l-0 0 2.144-2.134c0.097-0.097 0.156-0.23 0.156-0.378s-0.060-0.281-0.156-0.378v0zM11.087 20.31l-1.387-1.381 1.387-1.381 1.387 1.381-1.387 1.381zM17.17 5.073l-0.258 1.036c0.071 0.018 1.739 0.452 1.739 2.15h1.067c0-2.018-1.667-2.966-2.548-3.186zM19.718 9.325h-1.067v1.067h1.067v-1.067z"></path>
</svg>
