<!-- Generated by IcoMoon.io -->
<svg version="1.1" xmlns="http://www.w3.org/2000/svg" width="32" height="32" viewBox="0 0 32 32">
<title>clock</title>
<path fill="#212121" d="M31.308 15.306c-0.002-8.455-6.857-15.308-15.313-15.306s-15.308 6.857-15.306 15.313c0.001 6.79 4.423 12.548 10.545 14.551l0.108 0.031c0.057 0.018 0.123 0.028 0.191 0.028 0.125 0 0.242-0.035 0.341-0.095l-0.003 0.002c0.134-0.080 0.234-0.204 0.282-0.352l0.001-0.005 3.866-12.254c1.052-0.006 1.901-0.86 1.901-1.913 0-1.056-0.856-1.913-1.913-1.913-0.302 0-0.587 0.070-0.84 0.194l0.011-0.005-5.108-5.109c-0.115-0.115-0.275-0.187-0.451-0.187-0.352 0-0.638 0.286-0.638 0.638 0 0.176 0.071 0.336 0.187 0.451v0l5.105 5.111c-0.121 0.241-0.192 0.525-0.192 0.826 0 0.602 0.283 1.137 0.724 1.481l0.004 0.003-3.684 11.677c-7.281-2.682-11.008-10.758-8.326-18.038s10.758-11.008 18.038-8.326 11.008 10.758 8.326 18.038c-1.345 3.582-4.005 6.408-7.377 7.94l-0.088 0.036-0.398-1.875c-0.063-0.291-0.319-0.505-0.624-0.505-0.163 0-0.312 0.061-0.425 0.162l0.001-0.001-3.838 3.427c-0.132 0.117-0.214 0.287-0.214 0.477 0 0.283 0.185 0.524 0.441 0.606l0.005 0.001 4.901 1.564c0.058 0.019 0.125 0.030 0.195 0.030 0.352 0 0.638-0.286 0.638-0.638 0-0.047-0.005-0.093-0.015-0.137l0.001 0.004-0.391-1.84c5.53-2.375 9.332-7.774 9.332-14.062 0-0.011 0-0.023-0-0.034v0.002zM15.998 14.669c0.353 0 0.639 0.286 0.639 0.639s-0.286 0.639-0.639 0.639v0c-0.353 0-0.639-0.286-0.639-0.639s0.286-0.639 0.639-0.639v0zM18.099 29.538l2.185-1.949 0.603 2.841-2.788-0.892z"></path>
<path fill="#2196f3" d="M15.359 3.186v1.275c0 0.352 0.286 0.638 0.638 0.638s0.638-0.286 0.638-0.638v-1.275c0-0.352-0.286-0.638-0.638-0.638s-0.638 0.286-0.638 0.638v0zM3.877 14.669c-0.352 0-0.638 0.286-0.638 0.638s0.286 0.638 0.638 0.638h1.275c0.352 0 0.638-0.286 0.638-0.638s-0.286-0.638-0.638-0.638h-1.275zM28.118 15.945c0.352 0 0.638-0.286 0.638-0.638s-0.286-0.638-0.638-0.638h-1.275c-0.352 0-0.638 0.286-0.638 0.638s0.286 0.638 0.638 0.638h1.275z"></path>
</svg>
