<!-- Generated by IcoMoon.io -->
<svg version="1.1" xmlns="http://www.w3.org/2000/svg" width="32" height="32" viewBox="0 0 32 32">
<title>diagram</title>
<path fill="#2196f3" d="M14.931 14.97h1.066v4.8h-1.066v-4.799zM19.197 17.103h1.066v2.666h-1.066v-2.666zM10.665 18.703h1.066v1.066h-1.066v-1.066zM7.466 18.169h1.066v1.6h-1.066v-1.6z"></path>
<path fill="#212121" d="M1.6 28.301h25.596c0.883-0.001 1.599-0.716 1.6-1.599v-2.133c-0.001-0.883-0.716-1.599-1.599-1.6h-0.533v-13.298l3.029-2.869c0.208 0.105 0.453 0.166 0.712 0.166 0.888 0 1.609-0.72 1.609-1.609s-0.72-1.609-1.609-1.609c-0.888 0-1.609 0.72-1.609 1.609 0 0.247 0.055 0.48 0.155 0.689l-0.004-0.010-2.282 2.164v-1.23c-0.001-0.883-0.716-1.599-1.599-1.6h-21.33c-0.883 0.001-1.599 0.716-1.6 1.599v15.998h-0.533c-0.883 0.001-1.599 0.716-1.6 1.599v2.133c0.001 0.883 0.716 1.599 1.599 1.6h0zM30.395 4.839c0.295 0 0.534 0.239 0.534 0.534s-0.239 0.534-0.534 0.534v0c-0.295 0-0.534-0.239-0.534-0.534s0.239-0.534 0.534-0.534v0zM3.199 6.971c0-0.294 0.239-0.533 0.533-0.533h21.33c0.294 0 0.533 0.239 0.533 0.533v2.24l-1.066 1.013v-2.187c0-0.294-0.239-0.533-0.533-0.533v0h-19.197c-0.294 0-0.533 0.239-0.533 0.533v0 13.331c0 0.294 0.239 0.533 0.533 0.533h19.197c0.294 0 0.533-0.239 0.533-0.533v0-9.677l1.066-1.010v12.288h-22.396v-15.998zM7.999 13.904c-0 0-0.001 0-0.002 0-0.883 0-1.599 0.716-1.599 1.599s0.716 1.599 1.599 1.599c0.431 0 0.822-0.17 1.109-0.448l-0.001 0 1.854 0.93c0.069 0.035 0.151 0.056 0.238 0.056 0.158 0 0.3-0.069 0.398-0.179l0-0.001 3.94-4.433 3.873 2.902c0.088 0.067 0.199 0.107 0.32 0.107 0.142 0 0.271-0.055 0.366-0.146l-0 0 3.366-3.189v8.134h-18.13v-12.264h18.13v2.661l-3.772 3.573-3.905-2.928c-0.088-0.067-0.199-0.107-0.32-0.107-0.158 0-0.3 0.069-0.398 0.178l-0 0.001-3.994 4.495-1.494-0.746c0.011-0.064 0.018-0.129 0.020-0.193-0.001-0.883-0.716-1.599-1.599-1.6h-0zM8.532 15.504c0 0.295-0.239 0.534-0.534 0.534s-0.534-0.239-0.534-0.534v0c0-0.295 0.239-0.534 0.534-0.534s0.534 0.239 0.534 0.534v0zM11.731 24.036h5.333v0.533c0 0.294-0.239 0.533-0.533 0.533v0h-4.265c-0.294 0-0.533-0.239-0.533-0.533v0-0.533zM1.066 24.569c0-0.294 0.239-0.533 0.533-0.533h9.065v0.533c0.001 0.883 0.716 1.599 1.599 1.6h4.266c0.883-0.001 1.599-0.716 1.6-1.599v-0.533h9.065c0.294 0 0.533 0.239 0.533 0.533v2.133c0 0.294-0.239 0.533-0.533 0.533v0h-25.596c-0.294 0-0.533-0.239-0.533-0.533v0-2.133z"></path>
</svg>
